<svg width="40" height="63" viewBox="0 0 40 63" fill="none" xmlns="http://www.w3.org/2000/svg">
<g clip-path="url(#clip0_2_2704)">
<path d="M8.79995 52.6C8.89995 52.9 8.79995 53.1 8.49995 53.1H8.29995C8.09995 53.1 7.89995 53 7.79995 52.8L7.49995 52H4.49995L4.19995 52.8C4.19995 53 3.99995 53.1 3.69995 53.1H3.59995C3.29995 53.1 3.19995 52.9 3.29995 52.6L5.49995 47.4C5.49995 47.2 5.69995 47.1 5.99995 47.1H6.29995C6.49995 47.1 6.69995 47.1 6.79995 47.4L8.99995 52.6H8.79995ZM7.19995 51.1L5.99995 48.1L4.79995 51.1H7.19995Z" fill="#1D1D1B"/>
<path d="M15.5999 47.1H15.4999C15.1999 47.1 14.9999 47.3 14.9999 47.6V50.2C14.9999 51.4 14.5999 51.9 13.6999 51.9C12.7999 51.9 12.3999 51.4 12.3999 50.2V47.6C12.3999 47.3 12.1999 47.1 11.8999 47.1H11.7999C11.4999 47.1 11.2999 47.3 11.2999 47.6V50.2C11.2999 52.1 12.0999 53 13.7999 53C15.4999 53 16.2999 52 16.2999 50.2V47.6C16.2999 47.3 16.0999 47.1 15.7999 47.1" fill="#1D1D1B"/>
<path d="M17.5999 48.7H17.4999C17.1999 48.7 16.9999 48.9 16.9999 49.2V52.5C16.9999 52.8 17.1999 53 17.4999 53H17.5999C17.8999 53 18.0999 52.8 18.0999 52.5V49.2C18.0999 48.9 17.8999 48.7 17.5999 48.7Z" fill="#FA4517"/>
<path d="M18.2999 46.7C17.8999 46.7 17.5999 47.1 17.5999 47.4C17.5999 47 17.1999 46.7 16.8999 46.7C17.2999 46.7 17.5999 46.3 17.5999 46C17.5999 46.4 17.9999 46.7 18.2999 46.7ZM18.9999 46.6C18.1999 46.5 17.6999 45.9 17.4999 45.1C17.3999 45.9 16.7999 46.4 15.9999 46.6C16.7999 46.7 17.2999 47.3 17.4999 48.1C17.5999 47.3 18.1999 46.8 18.9999 46.6Z" fill="#FA4517"/>
<path d="M19.5 45.5C19.1 45.5 18.8 45.9 18.8 46.2C18.8 45.8 18.4 45.5 18.1 45.5C18.5 45.5 18.8 45.1 18.8 44.8C18.8 45.2 19.2 45.5 19.5 45.5Z" fill="#FA4517"/>
<path d="M22.3 49.2C22.3 50 21.9 50.2 20.8 50.2H20.2V48.1H20.8C21.9 48.1 22.3 48.4 22.3 49.1M20.7 47.1H19.6C19.3 47.1 19.1 47.3 19.1 47.6V52.5C19.1 52.8 19.3 53 19.6 53H19.7C20 53 20.2 52.8 20.2 52.5V51.3H20.7C22.7 51.3 23.5 50.7 23.5 49.2C23.5 47.7 22.7 47.1 20.7 47.1Z" fill="#1D1D1B"/>
<path d="M27.3999 50.6C27.3999 51.5 26.8999 52 26.0999 52C25.2999 52 24.7999 51.4 24.7999 50.6C24.7999 49.8 25.2999 49.2 26.0999 49.2C26.8999 49.2 27.3999 49.8 27.3999 50.6ZM27.9999 48.2C27.6999 48.2 27.4999 48.4 27.4999 48.7C27.1999 48.3 26.5999 48.1 25.9999 48.1C25.3999 48.1 24.7999 48.3 24.4999 48.7C24.0999 49.1 23.7999 49.8 23.7999 50.5C23.7999 51.2 23.9999 51.9 24.4999 52.3C24.8999 52.7 25.3999 52.9 26.0999 52.9C26.7999 52.9 27.1999 52.7 27.4999 52.3C27.4999 52.7 27.6999 52.9 27.9999 52.9C28.2999 52.9 28.4999 52.7 28.4999 52.4V48.6C28.4999 48.3 28.2999 48.1 27.9999 48.1" fill="#1D1D1B"/>
<path d="M31.9999 52.5C31.9999 52.3 31.8999 52.1 31.3999 52.1C30.8999 52.1 30.5999 51.9 30.5999 51V49.2H31.3999C31.6999 49.2 31.8999 49 31.8999 48.7C31.8999 48.4 31.6999 48.2 31.3999 48.2H30.5999V47.6C30.5999 47.3 30.3999 47.1 30.0999 47.1C29.7999 47.1 29.5999 47.3 29.5999 47.6V48.2H29.3999C29.0999 48.2 28.8999 48.4 28.8999 48.7C28.8999 49 29.0999 49.2 29.3999 49.2H29.4999V51.1C29.4999 52.5 29.9999 53.1 31.2999 53.1H31.4999C31.6999 53.1 31.7999 53.1 31.8999 52.9C31.8999 52.9 31.9999 52.6 31.8999 52.5" fill="#1D1D1B"/>
<path d="M34.7999 48.1C34.1999 48.1 33.6999 48.3 33.4999 48.7V47.7C33.4999 47.4 33.2999 47.2 32.9999 47.2C32.6999 47.2 32.4999 47.4 32.4999 47.7V52.6C32.4999 52.9 32.6999 53.1 32.9999 53.1C33.2999 53.1 33.4999 52.9 33.4999 52.6V50.6C33.4999 49.3 34.0999 49.2 34.5999 49.2C35.3999 49.2 35.6999 49.6 35.6999 50.5V52.6C35.6999 52.9 35.8999 53.1 36.1999 53.1C36.4999 53.1 36.6999 52.9 36.6999 52.6V50.5C36.6999 49 36.0999 48.2 34.6999 48.2" fill="#1D1D1B"/>
<path d="M0 59.1C0 57.7 1 56.6 2.3 56.6C3.6 56.6 4 57 4.3 57.7C4.4 58 4.3 58.2 4.1 58.2C3.9 58.2 3.7 58.2 3.6 58C3.3 57.6 2.9 57.4 2.4 57.4C1.5 57.4 0.9 58.1 0.9 59.1C0.9 60.1 1.5 60.8 2.4 60.8C3.3 60.8 3.3 60.6 3.6 60.3C3.7 60.1 3.9 60 4.1 60.1C4.4 60.1 4.5 60.3 4.4 60.6C4 61.3 3.3 61.7 2.4 61.7C1.5 61.7 0.1 60.7 0.1 59.2L0 59.1Z" fill="#1D1D1B"/>
<path d="M5.09998 59.1C5.09998 57.4 6.29998 56.6 7.49998 56.6C8.69998 56.6 9.89998 57.4 9.89998 59.1C9.89998 60.8 8.69998 61.6 7.49998 61.6C6.29998 61.6 5.09998 60.8 5.09998 59.1ZM8.99998 59.1C8.99998 58.1 8.39998 57.4 7.49998 57.4C6.59998 57.4 5.99998 58 5.99998 59.1C5.99998 60.2 6.59998 60.8 7.49998 60.8C8.39998 60.8 8.99998 60.2 8.99998 59.1Z" fill="#1D1D1B"/>
<path d="M16.3 56.6C17.5 56.6 18 57.3 18 59V61C18 61.3 17.9 61.4 17.6 61.4C17.3 61.4 17.2 61.3 17.2 61V59.1C17.2 57.9 16.9 57.4 16.1 57.4C15.3 57.4 14.9 57.9 14.9 59.1V61C14.9 61.3 14.8 61.4 14.5 61.4C14.2 61.4 14.1 61.3 14.1 61V59.1C14.1 57.9 13.8 57.4 13 57.4C12.2 57.4 11.8 57.9 11.8 59.2V61C11.8 61.3 11.7 61.4 11.4 61.4C11.1 61.4 11 61.3 11 61V57.1C11 56.8 11.1 56.7 11.4 56.7C11.7 56.7 11.8 56.8 11.8 57.1V57.6C12 57.1 12.5 56.6 13.2 56.6C13.9 56.6 14.4 56.9 14.6 57.7C14.8 57.1 15.5 56.6 16.3 56.6Z" fill="#1D1D1B"/>
<path d="M19 62.6V57.2C19 56.9 19.1 56.8 19.4 56.8C19.7 56.8 19.8 56.9 19.8 57.2V57.7C20 57.1 20.7 56.7 21.5 56.7C22.3 56.7 23.7 57.4 23.7 59.2C23.7 61 22.6 61.7 21.5 61.7C20.4 61.7 20.1 61.3 19.8 60.7V62.7C19.8 63 19.7 63.1 19.4 63.1C19.1 63.1 19 63 19 62.7V62.6ZM22.9 59.1C22.9 58.1 22.3 57.4 21.4 57.4C20.5 57.4 19.9 58 19.9 59.1C19.9 60.2 20.5 60.8 21.4 60.8C22.3 60.8 22.9 60.2 22.9 59.1Z" fill="#1D1D1B"/>
<path d="M24.5 59.1C24.5 57.5 25.5 56.6 26.7 56.6C27.9 56.6 28.1 57 28.4 57.6V57.1C28.4 56.8 28.5 56.7 28.8 56.7C29.1 56.7 29.2 56.8 29.2 57.1V61C29.2 61.3 29.1 61.4 28.8 61.4C28.5 61.4 28.4 61.3 28.4 61V60.5C28.1 61.1 27.5 61.5 26.7 61.5C25.5 61.5 24.5 60.7 24.5 59V59.1ZM28.4 59.1C28.4 58.1 27.8 57.4 26.9 57.4C26 57.4 25.4 58 25.4 59.1C25.4 60.2 26 60.8 26.9 60.8C27.8 60.8 28.4 60.2 28.4 59.1Z" fill="#1D1D1B"/>
<path d="M32.9 56.6C34.2 56.6 34.8 57.4 34.8 58.9V61.1C34.8 61.4 34.7 61.5 34.4 61.5C34.1 61.5 34 61.4 34 61.1V59C34 58 33.6 57.5 32.7 57.5C31.8 57.5 31.4 58.1 31.4 59.1V61.1C31.4 61.4 31.3 61.5 31 61.5C30.7 61.5 30.6 61.4 30.6 61.1V57.2C30.6 56.9 30.7 56.8 31 56.8C31.3 56.8 31.4 56.9 31.4 57.2V57.7C31.6 57.2 32.2 56.7 33 56.7L32.9 56.6Z" fill="#1D1D1B"/>
<path d="M36.6 62.5L37.1 61.4L35.3 57.2C35.2 56.9 35.3 56.7 35.6 56.7H35.8C36 56.7 36.2 56.8 36.3 57L37.7 60.4L39.1 57C39.1 56.8 39.3 56.7 39.6 56.7H39.7C40 56.7 40.1 56.9 40 57.2L37.6 62.7C37.6 62.9 37.3 63 37.1 63H36.9C36.6 63 36.5 62.8 36.6 62.5Z" fill="#1D1D1B"/>
<path d="M40 26.2C40 26.2 40 26.1 40 26C40 26 40 25.9 39.9 25.8L34.1 20L39.9 14.2C40.1 14 40.2 13.6 40.1 13.3C40 13 39.7 12.8 39.3 12.8H27.4V0.8C27.4 0.5 27.2 0.2 26.9 1.37836e-07C26.6 -0.0999999 26.2 1.3411e-07 26 0.2L13.5 12.7H0.8C0.3 12.7 0 13.1 0 13.5V26.3C0 26.8 0.4 27.1 0.8 27.1H11.5L6.6 32C6.3 32.3 6.3 32.9 6.6 33.2L13 39.6C13 39.6 13 39.6 13.1 39.7C13.1 39.7 13.2 39.7 13.3 39.7H38.8C39.3 39.7 39.6 39.3 39.6 38.9V26.1C39.6 26.1 39.6 26 39.6 25.9L40 26.2ZM14.5 14.5H25.6V25.6H14.5V14.5ZM27.2 15.7L37.1 25.6H27.2V15.7ZM37.1 14.5L32.8 18.8L28.5 14.5H37.2H37.1ZM25.5 2.9V12.8H15.6L25.5 2.9ZM1.7 14.5H12.8V25.6H1.7V14.5ZM12.8 28.4V37.1L8.5 32.8L12.8 28.5V28.4ZM14.5 27.2H25.6V38.3H14.5V27.2ZM38.3 38.3H27.2V27.2H38.3V38.3ZM9.5 17.1C9.2 16.9 8.9 16.7 8.5 16.6C8.1 16.5 7.7 16.4 7.2 16.4H4V23.5H6.4V21.6H7.2C7.7 21.6 8.1 21.6 8.5 21.4C8.9 21.3 9.2 21.1 9.5 20.9C9.8 20.7 10 20.4 10.2 20.1C10.4 19.8 10.4 19.4 10.4 19C10.4 18.6 10.4 18.2 10.2 17.9C10 17.6 9.8 17.3 9.6 17.1H9.5ZM8.1 19.1C8.1 19.4 8.1 19.6 7.8 19.7C7.6 19.8 7.4 19.9 7.1 19.9H6.5V18.3H7.1C7.4 18.3 7.7 18.3 7.8 18.5C8 18.6 8.1 18.8 8.1 19.1ZM19.3 20.8H22.8V19.1H19.3V18.4H23V16.5H16.9V23.6H23V21.7H19.2V20.9L19.3 20.8ZM18.8 29.2L15.8 36.3H18.3L18.7 35.3H21.2L21.6 36.3H24.2L21.2 29.2H18.8ZM19.3 33.7L19.9 32L20.5 33.7H19.2H19.3ZM31.5 34.8L32.1 34.1L33.5 36.4H36.3L33.8 32.4L36.3 29.3H33.5L31.5 32V29.3H29.1V36.4H31.5V34.9V34.8Z" fill="black"/>
</g>
<defs>
<clipPath id="clip0_2_2704">
<rect width="40" height="63" fill="white"/>
</clipPath>
</defs>
</svg>
