<svg width="40" height="63" viewBox="0 0 40 63" fill="none" xmlns="http://www.w3.org/2000/svg">
<g clip-path="url(#clip0_14570_26822)">
<path d="M8.79995 52.5996C8.89995 52.8996 8.79995 53.0996 8.49995 53.0996H8.29995C8.09995 53.0996 7.89995 52.9996 7.79995 52.7996L7.49995 51.9996H4.49995L4.19995 52.7996C4.19995 52.9996 3.99995 53.0996 3.69995 53.0996H3.59995C3.29995 53.0996 3.19995 52.8996 3.29995 52.5996L5.49995 47.3996C5.49995 47.1996 5.69995 47.0996 5.99995 47.0996H6.29995C6.49995 47.0996 6.69995 47.0996 6.79995 47.3996L8.99995 52.5996H8.79995ZM7.19995 51.0996L5.99995 48.0996L4.79995 51.0996H7.19995Z" fill="#1D1D1B"/>
<path d="M15.6 47.0996H15.5C15.2 47.0996 15 47.2996 15 47.5996V50.1996C15 51.3996 14.6 51.8996 13.7 51.8996C12.8 51.8996 12.4 51.3996 12.4 50.1996V47.5996C12.4 47.2996 12.2 47.0996 11.9 47.0996H11.8C11.5 47.0996 11.3 47.2996 11.3 47.5996V50.1996C11.3 52.0996 12.1 52.9996 13.8 52.9996C15.5 52.9996 16.3 51.9996 16.3 50.1996V47.5996C16.3 47.2996 16.1 47.0996 15.8 47.0996" fill="#1D1D1B"/>
<path d="M17.6 48.6997H17.5C17.2 48.6997 17 48.8997 17 49.1997V52.4997C17 52.7997 17.2 52.9997 17.5 52.9997H17.6C17.9 52.9997 18.1 52.7997 18.1 52.4997V49.1997C18.1 48.8997 17.9 48.6997 17.6 48.6997Z" fill="#FA4517"/>
<path d="M18.3 46.6996C17.9 46.6996 17.6 47.0996 17.6 47.3996C17.6 46.9996 17.2 46.6996 16.9 46.6996C17.3 46.6996 17.6 46.2996 17.6 45.9996C17.6 46.3996 18 46.6996 18.3 46.6996ZM19 46.5996C18.2 46.4996 17.7 45.8996 17.5 45.0996C17.4 45.8996 16.8 46.3996 16 46.5996C16.8 46.6996 17.3 47.2996 17.5 48.0996C17.6 47.2996 18.2 46.7996 19 46.5996Z" fill="#FA4517"/>
<path d="M19.5001 45.4998C19.1001 45.4998 18.8001 45.8998 18.8001 46.1998C18.8001 45.7998 18.4001 45.4998 18.1001 45.4998C18.5001 45.4998 18.8001 45.0998 18.8001 44.7998C18.8001 45.1998 19.2001 45.4998 19.5001 45.4998Z" fill="#FA4517"/>
<path d="M22.3001 49.1996C22.3001 49.9996 21.9001 50.1996 20.8001 50.1996H20.2001V48.0996H20.8001C21.9001 48.0996 22.3001 48.3996 22.3001 49.0996M20.7001 47.0996H19.6001C19.3001 47.0996 19.1001 47.2996 19.1001 47.5996V52.4996C19.1001 52.7996 19.3001 52.9996 19.6001 52.9996H19.7001C20.0001 52.9996 20.2001 52.7996 20.2001 52.4996V51.2996H20.7001C22.7001 51.2996 23.5001 50.6996 23.5001 49.1996C23.5001 47.6996 22.7001 47.0996 20.7001 47.0996Z" fill="#1D1D1B"/>
<path d="M27.4 50.5996C27.4 51.4996 26.9 51.9996 26.1 51.9996C25.3001 51.9996 24.8 51.3996 24.8 50.5996C24.8 49.7996 25.3001 49.1996 26.1 49.1996C26.9 49.1996 27.4 49.7996 27.4 50.5996ZM28 48.1996C27.7 48.1996 27.5 48.3996 27.5 48.6996C27.2 48.2996 26.6 48.0996 26 48.0996C25.4 48.0996 24.8 48.2996 24.5 48.6996C24.1 49.0996 23.8 49.7996 23.8 50.4996C23.8 51.1996 24 51.8996 24.5 52.2996C24.9 52.6996 25.4 52.8996 26.1 52.8996C26.8001 52.8996 27.2 52.6996 27.5 52.2996C27.5 52.6996 27.7 52.8996 28 52.8996C28.3 52.8996 28.5 52.6996 28.5 52.3996V48.5996C28.5 48.2996 28.3 48.0996 28 48.0996" fill="#1D1D1B"/>
<path d="M32.0001 52.4996C32.0001 52.2996 31.9001 52.0996 31.4001 52.0996C30.9001 52.0996 30.6001 51.8996 30.6001 50.9996V49.1996H31.4001C31.7001 49.1996 31.9001 48.9996 31.9001 48.6996C31.9001 48.3996 31.7001 48.1996 31.4001 48.1996H30.6001V47.5996C30.6001 47.2996 30.4001 47.0996 30.1001 47.0996C29.8001 47.0996 29.6001 47.2996 29.6001 47.5996V48.1996H29.4001C29.1001 48.1996 28.9001 48.3996 28.9001 48.6996C28.9001 48.9996 29.1001 49.1996 29.4001 49.1996H29.5001V51.0996C29.5001 52.4996 30.0001 53.0996 31.3001 53.0996H31.5001C31.7001 53.0996 31.8001 53.0996 31.9001 52.8996C31.9001 52.8996 32.0001 52.5996 31.9001 52.4996" fill="#1D1D1B"/>
<path d="M34.8 48.0997C34.2 48.0997 33.7 48.2997 33.5 48.6997V47.6997C33.5 47.3997 33.3 47.1997 33 47.1997C32.7 47.1997 32.5 47.3997 32.5 47.6997V52.5997C32.5 52.8997 32.7 53.0997 33 53.0997C33.3 53.0997 33.5 52.8997 33.5 52.5997V50.5997C33.5 49.2997 34.1 49.1997 34.6 49.1997C35.4 49.1997 35.7 49.5997 35.7 50.4997V52.5997C35.7 52.8997 35.9 53.0997 36.2 53.0997C36.5 53.0997 36.7 52.8997 36.7 52.5997V50.4997C36.7 48.9997 36.1 48.1997 34.7 48.1997" fill="#1D1D1B"/>
<path d="M0 59.0996C0 57.6996 1 56.5996 2.3 56.5996C3.6 56.5996 4 56.9996 4.3 57.6996C4.4 57.9996 4.3 58.1996 4.1 58.1996C3.9 58.1996 3.7 58.1996 3.6 57.9996C3.3 57.5996 2.9 57.3996 2.4 57.3996C1.5 57.3996 0.9 58.0996 0.9 59.0996C0.9 60.0996 1.5 60.7996 2.4 60.7996C3.3 60.7996 3.3 60.5996 3.6 60.2996C3.7 60.0996 3.9 59.9996 4.1 60.0996C4.4 60.0996 4.5 60.2996 4.4 60.5996C4 61.2996 3.3 61.6996 2.4 61.6996C1.5 61.6996 0.1 60.6996 0.1 59.1996L0 59.0996Z" fill="#1D1D1B"/>
<path d="M5.1001 59.0996C5.1001 57.3996 6.3001 56.5996 7.5001 56.5996C8.7001 56.5996 9.9001 57.3996 9.9001 59.0996C9.9001 60.7996 8.7001 61.5996 7.5001 61.5996C6.3001 61.5996 5.1001 60.7996 5.1001 59.0996ZM9.0001 59.0996C9.0001 58.0996 8.4001 57.3996 7.5001 57.3996C6.6001 57.3996 6.0001 57.9996 6.0001 59.0996C6.0001 60.1996 6.6001 60.7996 7.5001 60.7996C8.4001 60.7996 9.0001 60.1996 9.0001 59.0996Z" fill="#1D1D1B"/>
<path d="M16.3 56.5996C17.5 56.5996 18 57.2996 18 58.9996V60.9996C18 61.2996 17.9 61.3996 17.6 61.3996C17.3 61.3996 17.2 61.2996 17.2 60.9996V59.0996C17.2 57.8996 16.9 57.3996 16.1 57.3996C15.3 57.3996 14.9 57.8996 14.9 59.0996V60.9996C14.9 61.2996 14.8 61.3996 14.5 61.3996C14.2 61.3996 14.1 61.2996 14.1 60.9996V59.0996C14.1 57.8996 13.8 57.3996 13 57.3996C12.2 57.3996 11.8 57.8996 11.8 59.1996V60.9996C11.8 61.2996 11.7 61.3996 11.4 61.3996C11.1 61.3996 11 61.2996 11 60.9996V57.0996C11 56.7996 11.1 56.6996 11.4 56.6996C11.7 56.6996 11.8 56.7996 11.8 57.0996V57.5996C12 57.0996 12.5 56.5996 13.2 56.5996C13.9 56.5996 14.4 56.8996 14.6 57.6996C14.8 57.0996 15.5 56.5996 16.3 56.5996Z" fill="#1D1D1B"/>
<path d="M19 62.5997V57.1997C19 56.8997 19.1 56.7997 19.4 56.7997C19.7 56.7997 19.8 56.8997 19.8 57.1997V57.6997C20 57.0997 20.7 56.6997 21.5 56.6997C22.3 56.6997 23.7 57.3997 23.7 59.1997C23.7 60.9997 22.6 61.6997 21.5 61.6997C20.4 61.6997 20.1 61.2997 19.8 60.6997V62.6997C19.8 62.9997 19.7 63.0997 19.4 63.0997C19.1 63.0997 19 62.9997 19 62.6997V62.5997ZM22.9 59.0997C22.9 58.0997 22.3 57.3997 21.4 57.3997C20.5 57.3997 19.9 57.9997 19.9 59.0997C19.9 60.1997 20.5 60.7997 21.4 60.7997C22.3 60.7997 22.9 60.1997 22.9 59.0997Z" fill="#1D1D1B"/>
<path d="M24.5 59.0996C24.5 57.4996 25.5 56.5996 26.7 56.5996C27.9 56.5996 28.1 56.9996 28.4 57.5996V57.0996C28.4 56.7996 28.5 56.6996 28.8 56.6996C29.1 56.6996 29.2 56.7996 29.2 57.0996V60.9996C29.2 61.2996 29.1 61.3996 28.8 61.3996C28.5 61.3996 28.4 61.2996 28.4 60.9996V60.4996C28.1 61.0996 27.5 61.4996 26.7 61.4996C25.5 61.4996 24.5 60.6996 24.5 58.9996V59.0996ZM28.4 59.0996C28.4 58.0996 27.8 57.3996 26.9 57.3996C26 57.3996 25.4 57.9996 25.4 59.0996C25.4 60.1996 26 60.7996 26.9 60.7996C27.8 60.7996 28.4 60.1996 28.4 59.0996Z" fill="#1D1D1B"/>
<path d="M32.9001 56.5996C34.2001 56.5996 34.8001 57.3996 34.8001 58.8996V61.0996C34.8001 61.3996 34.7001 61.4996 34.4001 61.4996C34.1001 61.4996 34.0001 61.3996 34.0001 61.0996V58.9996C34.0001 57.9996 33.6001 57.4996 32.7001 57.4996C31.8001 57.4996 31.4001 58.0996 31.4001 59.0996V61.0996C31.4001 61.3996 31.3001 61.4996 31.0001 61.4996C30.7001 61.4996 30.6001 61.3996 30.6001 61.0996V57.1996C30.6001 56.8996 30.7001 56.7996 31.0001 56.7996C31.3001 56.7996 31.4001 56.8996 31.4001 57.1996V57.6996C31.6001 57.1996 32.2001 56.6996 33.0001 56.6996L32.9001 56.5996Z" fill="#1D1D1B"/>
<path d="M36.6 62.4997L37.1 61.3997L35.3 57.1997C35.2 56.8997 35.3 56.6997 35.6 56.6997H35.8C36 56.6997 36.2 56.7997 36.3 56.9997L37.7 60.3997L39.1 56.9997C39.1 56.7997 39.3 56.6997 39.6 56.6997H39.7C40 56.6997 40.1 56.8997 40 57.1997L37.6 62.6997C37.6 62.8997 37.3 62.9997 37.1 62.9997H36.9C36.6 62.9997 36.5 62.7997 36.6 62.4997Z" fill="#1D1D1B"/>
<path d="M40 26.2002C40 26.2002 40 26.1002 40 26.0002C40 26.0002 40 25.9002 39.9 25.8002L34.1 20.0002L39.9 14.2002C40.1 14.0002 40.2 13.6002 40.1 13.3002C40 13.0002 39.7 12.8002 39.3 12.8002H27.4V0.800168C27.4 0.500168 27.2 0.200168 26.9 0.000167985C26.6 -0.099832 26.2 0.000167981 26 0.200168L13.5 12.7002H0.8C0.3 12.7002 0 13.1002 0 13.5002V26.3002C0 26.8002 0.4 27.1002 0.8 27.1002H11.5L6.6 32.0002C6.3 32.3002 6.3 32.9002 6.6 33.2002L13 39.6002C13 39.6002 13 39.6002 13.1 39.7002C13.1 39.7002 13.2 39.7002 13.3 39.7002H38.8C39.3 39.7002 39.6 39.3002 39.6 38.9002V26.1002C39.6 26.1002 39.6 26.0002 39.6 25.9002L40 26.2002ZM14.5 14.5002H25.6V25.6002H14.5V14.5002ZM27.2 15.7002L37.1 25.6002H27.2V15.7002ZM37.1 14.5002L32.8 18.8002L28.5 14.5002H37.2H37.1ZM25.5 2.90017V12.8002H15.6L25.5 2.90017ZM1.7 14.5002H12.8V25.6002H1.7V14.5002ZM12.8 28.4002V37.1002L8.5 32.8002L12.8 28.5002V28.4002ZM14.5 27.2002H25.6V38.3002H14.5V27.2002ZM38.3 38.3002H27.2V27.2002H38.3V38.3002ZM9.5 17.1002C9.2 16.9002 8.9 16.7002 8.5 16.6002C8.1 16.5002 7.7 16.4002 7.2 16.4002H4V23.5002H6.4V21.6002H7.2C7.7 21.6002 8.1 21.6002 8.5 21.4002C8.9 21.3002 9.2 21.1002 9.5 20.9002C9.8 20.7002 10 20.4002 10.2 20.1002C10.4 19.8002 10.4 19.4002 10.4 19.0002C10.4 18.6002 10.4 18.2002 10.2 17.9002C10 17.6002 9.8 17.3002 9.6 17.1002H9.5ZM8.1 19.1002C8.1 19.4002 8.1 19.6002 7.8 19.7002C7.6 19.8002 7.4 19.9002 7.1 19.9002H6.5V18.3002H7.1C7.4 18.3002 7.7 18.3002 7.8 18.5002C8 18.6002 8.1 18.8002 8.1 19.1002ZM19.3 20.8002H22.8V19.1002H19.3V18.4002H23V16.5002H16.9V23.6002H23V21.7002H19.2V20.9002L19.3 20.8002ZM18.8 29.2002L15.8 36.3002H18.3L18.7 35.3002H21.2L21.6 36.3002H24.2L21.2 29.2002H18.8ZM19.3 33.7002L19.9 32.0002L20.5 33.7002H19.2H19.3ZM31.5 34.8002L32.1 34.1002L33.5 36.4002H36.3L33.8 32.4002L36.3 29.3002H33.5L31.5 32.0002V29.3002H29.1V36.4002H31.5V34.9002V34.8002Z" fill="black"/>
</g>
<defs>
<clipPath id="clip0_14570_26822">
<rect width="40" height="63" fill="white"/>
</clipPath>
</defs>
</svg>
